<?xml version="1.0" encoding="iso-8859-1"?>
<!-- Generator: Adobe Illustrator 18.0.0, SVG Export Plug-In . SVG Version: 6.00 Build 0)  -->
<!DOCTYPE svg PUBLIC "-//W3C//DTD SVG 1.1//EN" "http://www.w3.org/Graphics/SVG/1.1/DTD/svg11.dtd">
<svg version="1.1" id="Capa_1" xmlns="http://www.w3.org/2000/svg" xmlns:xlink="http://www.w3.org/1999/xlink" x="0px" y="0px"
	 viewBox="0 0 208 208" style="enable-background:new 0 0 208 208;" xml:space="preserve">
<g>
	<path style="fill:#1D1D1B;" d="M148.136,0H59.864C47.042,0,36.61,10.432,36.61,23.254v161.492C36.61,197.568,47.042,208,59.864,208
		h88.271c12.822,0,23.254-10.432,23.254-23.254V23.254C171.39,10.432,160.958,0,148.136,0z M51.61,42.502H156.39v14.102H51.61
		V42.502z M59.864,15h88.271c4.551,0,8.254,3.703,8.254,8.254v4.249H51.61v-4.249C51.61,18.703,55.313,15,59.864,15z M148.136,193
		H59.864c-4.551,0-8.254-3.703-8.254-8.254V71.604H156.39v113.142C156.39,189.297,152.687,193,148.136,193z"/>
	<rect x="124.767" y="91.802" style="fill:#1D1D1B;" width="16.604" height="16.604"/>
	<rect x="95.698" y="91.802" style="fill:#1D1D1B;" width="16.604" height="16.604"/>
	<rect x="66.628" y="91.802" style="fill:#1D1D1B;" width="16.604" height="16.604"/>
	<rect x="124.767" y="124.802" style="fill:#1D1D1B;" width="16.604" height="16.604"/>
	<rect x="95.698" y="124.802" style="fill:#1D1D1B;" width="16.604" height="16.604"/>
	<rect x="66.628" y="124.802" style="fill:#1D1D1B;" width="16.604" height="16.604"/>
	<rect x="124.767" y="157.802" style="fill:#1D1D1B;" width="16.604" height="16.604"/>
	<rect x="95.698" y="157.802" style="fill:#1D1D1B;" width="16.604" height="16.604"/>
	<rect x="66.628" y="157.802" style="fill:#1D1D1B;" width="16.604" height="16.604"/>
</g>
<g>
</g>
<g>
</g>
<g>
</g>
<g>
</g>
<g>
</g>
<g>
</g>
<g>
</g>
<g>
</g>
<g>
</g>
<g>
</g>
<g>
</g>
<g>
</g>
<g>
</g>
<g>
</g>
<g>
</g>
</svg>
